<svg width="49" height="21" viewBox="0 0 49 21" fill="none" xmlns="http://www.w3.org/2000/svg">
<g>
<path d="M43.8597 15.16V9.72002H42.4697V8.52002H43.8797V5.52002H45.2897V8.52002H47.9597V9.72002H45.2897V15.01C45.2897 15.58 45.3697 16.07 45.5397 16.48C45.7097 16.87 45.9297 17.16 46.1897 17.34C46.4597 17.51 46.7097 17.63 46.9497 17.7C47.1897 17.77 47.4297 17.8 47.6897 17.8C47.8897 17.8 48.0497 17.79 48.1697 17.76V19.04C47.9997 19.07 47.7997 19.08 47.5597 19.08C47.2697 19.08 46.9797 19.06 46.6997 19.02C46.4197 18.98 46.0997 18.88 45.7297 18.73C45.3797 18.56 45.0697 18.34 44.8097 18.08C44.5397 17.81 44.3197 17.43 44.1397 16.92C43.9597 16.42 43.8697 15.83 43.8697 15.16H43.8597Z" fill="white"/>
<path d="M26.2803 19V4.23999H27.7103V9.44999L27.6503 10.33H27.6903C28.0103 9.66999 28.5003 9.14999 29.1403 8.77999C29.7803 8.38999 30.5003 8.18999 31.3003 8.18999C32.7103 8.18999 33.8303 8.69999 34.6603 9.71999C35.4903 10.73 35.9003 12.06 35.9003 13.71C35.9003 15.36 35.4603 16.72 34.5803 17.74C33.7003 18.75 32.5503 19.25 31.1403 19.25C30.4003 19.25 29.7103 19.05 29.0803 18.66C28.4503 18.27 27.9703 17.74 27.6303 17.09H27.5903C27.6303 17.33 27.6503 17.61 27.6503 17.95V19H26.2903H26.2803ZM27.6703 13.75C27.6703 14.9 27.9603 15.89 28.5503 16.73C29.1403 17.56 29.9603 17.97 31.0303 17.97C32.0003 17.97 32.8103 17.59 33.4703 16.84C34.1303 16.07 34.4603 15.03 34.4603 13.73C34.4603 12.43 34.1503 11.43 33.5203 10.66C32.9003 9.87999 32.1003 9.47999 31.1103 9.47999C30.1203 9.47999 29.3303 9.83999 28.6703 10.55C28.0103 11.26 27.6803 12.33 27.6803 13.74L27.6703 13.75Z" fill="white"/>
<path d="M18.7695 19V8.43996H20.1795V10.39L20.0995 11.23H20.1395C20.4195 10.39 20.8495 9.69996 21.4395 9.14996C22.0395 8.59996 22.7395 8.32996 23.5195 8.32996C23.7295 8.32996 23.9195 8.34996 24.0895 8.38996V9.79996C24.0095 9.76996 23.8295 9.75996 23.5695 9.75996C22.8295 9.75996 22.1895 10.02 21.6595 10.54C21.1295 11.06 20.7495 11.67 20.5295 12.37C20.3195 13.06 20.2195 13.78 20.2195 14.53V19H18.7895H18.7695Z" fill="white"/>
<path d="M1 11.5C1 9.38999 1.71 7.60999 3.14 6.16999C4.58 4.70999 6.37 3.98999 8.52 3.98999C10.67 3.98999 12.47 4.70999 13.9 6.14999C15.33 7.58999 16.04 9.37999 16.04 11.51C16.04 13.64 15.33 15.53 13.9 17.03C12.47 18.51 10.68 19.26 8.52 19.26C6.36 19.26 4.59 18.52 3.14 17.03C1.71 15.53 1 13.69 1 11.51L1 11.5ZM2.51 11.5C2.51 13.31 3.08 14.82 4.21 16.06C5.36 17.28 6.79 17.89 8.52 17.89C10.25 17.89 11.67 17.28 12.8 16.06C13.95 14.84 14.52 13.32 14.52 11.5C14.52 9.67999 13.95 8.28999 12.8 7.10999C11.67 5.92999 10.24 5.34999 8.52 5.34999C6.8 5.34999 5.36 5.93999 4.21 7.10999C3.08 8.28999 2.51 9.74999 2.51 11.5Z" fill="white"/>
<path d="M41.508 3.59184C40.3314 3.83045 39.8459 4.31591 39.6155 5.49252C39.5579 5.75581 39.1794 5.75581 39.1218 5.49252C38.8832 4.32413 38.3978 3.83045 37.2212 3.59184C36.9579 3.53424 36.9579 3.15575 37.2212 3.09815C38.3978 2.85954 38.8832 2.37408 39.1218 1.19747C39.1794 0.934176 39.5579 0.934176 39.6155 1.19747C39.8541 2.36586 40.3396 2.85954 41.508 3.09815C41.7713 3.15575 41.7713 3.53424 41.508 3.59184Z" fill="white"/>
<path d="M38.6504 18.9999V8.43994H40.0804V18.9999H38.6504Z" fill="white"/>
</g>
</svg>
