<svg xmlns="http://www.w3.org/2000/svg" width="115" height="117" viewBox="0 0 115 117" fill="none"><path d="M103.245 41.4254L99.5937 28.743C92.2892 9.82372 75.7668 0.747423 58.3573 0.0429688L55.8444 14.2566C67.3799 14.4241 77.7641 19.4434 83.9067 27.9054C83.9067 27.9054 87.8993 33.0192 89.1922 37.1428C89.1922 37.1428 91.6943 42.379 92.8262 54.0218C93.958 65.6646 89.8537 76.1348 89.8537 76.1348C84.1236 90.1487 74.4803 96.3234 74.4803 96.3234C74.4803 96.3234 58.9565 108.452 38.9439 101.538C18.9314 94.6246 17.7823 74.597 17.7823 74.597C17.7823 74.597 16.6784 67.1573 21.5301 57.456L10.8774 52.8835L8.7726 57.1747C5.82377 63.6651 4.63608 70.9222 5.90538 78.9247C10.4435 107.539 41.2313 123.11 67.7063 113.853C96.7973 103.679 112.16 69.1482 103.243 41.4232L103.245 41.4254Z" fill="white"/><path d="M70.1675 17.1891C66.1448 15.4945 62.4744 14.9297 62.4744 14.9297C53.136 18.991 40.0972 25.039 33.9332 29.6395C26.4526 35.2193 16.848 42.7492 10.8794 52.8865L8.77466 57.1776L21.5322 57.4568C26.3839 47.7534 35.7222 40.376 39.8459 37.4658C43.9695 34.5556 54.0961 27.7624 69.4996 22.9729C72.1177 22.1589 74.5532 21.4781 76.7933 20.9133C76.7933 20.9133 74.1924 18.8837 70.1697 17.1891H70.1675Z" fill="white"/><path d="M113.676 16.4592C113.676 16.4592 110.441 7.48386 96.7773 6.8374C91.569 6.59041 86.8891 7.06076 83.092 7.7373L83.2466 7.88549C87.1598 10.5208 90.6842 13.839 93.6588 17.8638L93.8156 18.0722C93.9015 18.055 93.9809 18.0614 93.9809 18.0614C93.9809 18.0614 96.438 18.0765 99.2558 19.335C102.076 20.5936 102.752 22.2452 102.752 22.2452C103.036 23.5789 101.882 25.6214 101.882 25.6214C99.5371 29.4616 95.9805 32.3116 95.9805 32.3116C90.2203 37.5864 79.2024 42.9235 79.2024 42.9235C70.5922 47.5325 55.8394 50.8873 55.8394 50.8873C55.8394 50.8873 41.0394 54.2828 27.2123 52.6656C16.9762 51.4693 13.3423 48.5033 12.146 47.045C11.7787 46.5961 11.6305 46.0098 11.7401 45.4406C13.7589 34.8824 23.123 24.1824 37.9574 17.866C43.9474 15.3166 50.0384 14.1719 55.8373 14.2578L58.3501 0.0441371C51.9971 -0.211442 45.5131 0.645501 39.3298 2.54839C15.054 10.0139 -4.62135 34.9877 0.95416 50.5243C7.08808 67.6202 41.2993 70.0622 65.6696 62.8909C65.6696 62.8909 85.6435 58.284 102.114 44.5966C119.597 30.0694 113.676 16.4592 113.676 16.4592Z" fill="url(#p16)"/><defs><linearGradient id="p16" x1="10" y1="42.9595" x2="108" y2="42.9595" gradientUnits="userSpaceOnUse"><stop stop-color="#CB3B51"/><stop offset="0.07" stop-color="#C23758"/><stop offset="0.17" stop-color="#AC2F6D"/><stop offset="0.3" stop-color="#87208F"/><stop offset="0.34" stop-color="#7B1C9B"/><stop offset="0.41" stop-color="#6F23AD"/><stop offset="0.56" stop-color="#5336DD"/><stop offset="0.59" stop-color="#4D3BE9"/><stop offset="0.72" stop-color="#2C4EE5"/><stop offset="0.82" stop-color="#1E6BE8"/><stop offset="0.90" stop-color="#2A8CF0"/><stop offset="0.96" stop-color="#3BA8F8"/><stop offset="1" stop-color="#42B5FE"/></linearGradient></defs></svg>
